<?xml version="1.0" encoding="utf-8"?>
<!-- Generator: Adobe Illustrator 16.0.0, SVG Export Plug-In . SVG Version: 6.00 Build 0)  -->
<!DOCTYPE svg PUBLIC "-//W3C//DTD SVG 1.1//EN" "http://www.w3.org/Graphics/SVG/1.1/DTD/svg11.dtd">
<svg version="1.1" id="Calque_1" xmlns="http://www.w3.org/2000/svg" xmlns:xlink="http://www.w3.org/1999/xlink" x="0px" y="0px"
	 width="512px" height="512px" viewBox="0 0 512 512" enable-background="new 0 0 512 512" xml:space="preserve">
<path fill="#99D8FF" d="M256.001,32.714c-126.816,0-230,103.465-230,230.62c0,94.875,59.309,181.271,147.543,214.971
	c3.681,1.467,7.82,1.236,11.386-0.494c3.565-1.754,6.269-4.869,7.446-8.672l43.123-138.086c2.044-6.551-0.775-13.637-6.754-16.924
	c-18.658-10.318-30.243-29.781-30.243-50.795c0-31.797,25.784-57.656,57.499-57.656c31.707,0,57.495,25.858,57.495,57.656
	c0,21.014-11.585,40.477-30.241,50.827c-5.979,3.283-8.825,10.377-6.755,16.925l43.122,138.077c1.182,3.806,3.882,6.921,7.442,8.679
	c1.983,0.951,4.145,1.442,6.273,1.442c1.719,0,3.473-0.313,5.119-0.952c88.253-33.726,147.541-120.123,147.541-214.994
	C485.998,136.179,382.814,32.714,256.001,32.714L256.001,32.714z"/>
<path fill="#FFFFFF" d="M256,90.945c-93.744,0-170.018,76.481-170.018,170.477c0,70.132,45.001,133.996,110.225,158.908
	c2.721,1.083,5.781,0.913,8.417-0.365c2.636-1.297,4.634-3.6,5.504-6.41l22.495-72.031c1.542-7.159-1.733-14.576-8.217-18.141
	c-21.628-11.961-35.057-34.522-35.057-58.881c0-36.859,29.889-66.835,66.652-66.835c36.755,0,66.647,29.975,66.647,66.835
	c0,24.358-13.429,46.92-35.055,58.918c-6.461,3.547-9.76,10.93-8.236,18.063l22.514,72.089c0.873,2.813,2.869,5.117,5.5,6.416
	c1.467,0.702,3.065,1.065,4.639,1.065c1.271,0,2.568-0.23,3.783-0.702c65.238-24.931,110.225-88.797,110.225-158.926
	C426.018,167.427,349.742,90.945,256,90.945z"/>
<path fill="#2E97E5" d="M256,113.612c-80.87,0-146.67,65.979-146.67,147.065c0,60.501,38.821,115.595,95.088,137.086
	c2.347,0.935,4.987,0.788,7.261-0.314c2.274-1.119,3.998-3.105,4.749-5.53l19.406-62.14c1.331-6.176-1.495-12.574-7.088-15.649
	c-18.658-10.318-30.243-29.781-30.243-50.795c0-31.797,25.784-57.656,57.499-57.656c31.707,0,57.495,25.858,57.495,57.656
	c0,21.014-11.585,40.477-30.241,50.827c-5.573,3.06-8.419,9.429-7.105,15.582l19.422,62.189c0.754,2.427,2.476,4.414,4.745,5.534
	c1.266,0.606,2.645,0.92,4.002,0.92c1.096,0,2.215-0.199,3.264-0.606c56.279-21.507,95.087-76.603,95.087-137.101
	C402.669,179.59,336.869,113.612,256,113.612z"/>
</svg>
