<svg xmlns="http://www.w3.org/2000/svg" width="160.501" height="160.501"><path fill="#00008f" d="M0 0h160.501v160.501H0z"/><path fill="#FF1821" d="M99.358 79.26L160.501 0h-9.058L90.3 79.26z"/><path fill="#FFF" d="M122.57 114.644c2.831 7.926 8.492 28.307 10.757 29.723h-15.003s0-3.113-.849-5.379c-.566-2.264-6.228-19.814-6.228-19.814H87.186l-3.396 5.378s4.529 14.153 4.812 15.002l2.548 5.096H76.712s-.283-2.265-.566-3.114c0-.849-1.415-4.812-1.415-4.812s-3.396 3.68-4.246 5.378c-.849 1.698-1.415 2.548-1.415 2.548H57.746s-.283-2.265-.566-3.114c0-.849-1.415-5.095-1.415-5.095s-3.113 3.963-3.963 5.661c-.85 1.415-1.132 2.265-1.132 2.265H39.347l4.246-4.246c1.981-2.265 8.775-11.322 8.775-11.322l-2.831-9.625H25.759s-13.587 17.834-14.153 18.399c-.566.566-4.529 6.228-4.529 6.794H0v-4.529l.283-.283c.282-.283 10.19-12.738 19.531-24.91 8.209-10.757 16.136-21.23 16.701-22.363 1.699-2.547 3.963-7.643 3.963-7.643h12.455s.283 4.812.85 5.944c.283 1.132 7.926 25.759 7.926 26.042l4.246-5.378-7.076-21.797s-1.699-4.246-2.265-4.812h14.437s0 1.981.566 3.963c.565 1.698 3.68 13.021 3.68 13.021s9.907-12.455 10.474-13.304c1.132-1.415 1.132-3.68 1.132-3.68h11.89s-2.265 1.698-5.945 6.51c-1.415 1.699-13.87 17.834-13.87 17.834s1.133 3.68 1.698 5.661c.283.566.283.849.283.849l.85-.849c3.396-4.246 18.116-23.778 18.966-25.193.849-1.415 1.698-2.831 2.547-4.529h11.606s.283 3.397.566 4.529l7.076 25.194zm-17.833-18.4c-1.698 3.68-11.89 16.135-11.89 16.135h16.136s-3.114-9.625-3.68-11.606c-.283-1.981-.283-4.246-.566-4.529.283-.283.283-.566 0 0zm-61.427 0c-1.698 3.68-11.889 16.135-11.889 16.135h16.135s-3.113-9.625-3.68-11.606-.566-4.246-.566-4.529c0-.283 0-.566 0 0zm24.061 37.365l4.528-5.944c-.282-.566-2.83-7.926-2.83-7.926l-4.246 5.662 2.548 8.208z"/></svg>