<?xml version="1.0" encoding="utf-8"?>
<!-- Generator: Adobe Illustrator 24.0.0, SVG Export Plug-In . SVG Version: 6.00 Build 0)  -->
<svg version="1.1" id="Capa_1" xmlns="http://www.w3.org/2000/svg" xmlns:xlink="http://www.w3.org/1999/xlink" x="0px" y="0px"
	 viewBox="0 0 2834.65 1700.79" style="enable-background:new 0 0 2834.65 1700.79;" xml:space="preserve">
<style type="text/css">
	.st0{fill:#4BBAED;}
	.st1{fill:#19A2E0;}
	.st2{fill:#B7E4F8;}
	.st3{fill:#93D6F4;}
	.st4{fill:#DBDBDB;}
	.st5{fill:#BDBDBD;}
	.st6{fill:#8AD2F4;}
	.st7{fill:#DBF1FB;}
	.st8{fill:#FFDB2D;}
	.st9{fill:#FFB700;}
</style>
<polygon class="st0" points="1955.77,71.97 1596.43,431.3 1716.51,551.37 1978,395.97 2075.84,192.04 "/>
<rect x="1702.14" y="346.85" transform="matrix(0.7071 -0.7071 0.7071 0.7071 267.6831 1509.7228)" class="st1" width="508.17" height="169.79"/>
<polygon class="st2" points="1928.37,0.03 1857.9,70.5 2027.64,240.24 2090.67,240.24 2098.11,169.77 "/>
<rect x="2097.84" y="169.86" transform="matrix(0.7071 -0.7071 0.7071 0.7071 424.1333 1603.5149)" class="st3" width="99.66" height="239.85"/>
<polygon class="st4" points="964.95,1232.25 566.93,1630.28 602.27,1665.61 744.11,1554.88 1000.29,1267.59 "/>
<rect x="537.43" y="1459.32" transform="matrix(0.7071 -0.7071 0.7071 0.7071 -809.6158 1013.7122)" class="st5" width="562.89" height="49.69"/>
<polygon class="st6" points="997.34,1033.24 713,1319.39 831.65,1438.8 969.74,1377.97 1115.99,1152.65 "/>
<polygon class="st0" points="831.65,1438.8 950.3,1558.2 1234.63,1272.05 1115.99,1152.65 "/>
<polygon class="st7" points="1609.25,254.51 1321.36,542.4 1503.21,764.67 1718.04,667.22 1811.31,456.57 "/>
<polygon class="st2" points="1503.49,764.39 1724.68,946.83 2013.37,658.63 1811.31,456.57 "/>
<polygon class="st8" points="1321.08,542.67 796.41,1067.34 998.48,1269.4 1530.34,872.28 1523.14,744.74 "/>
<rect x="990.86" y="965.22" transform="matrix(0.7071 -0.7071 0.7071 0.7071 -384.6713 1287.5276)" class="st9" width="741.98" height="285.76"/>
<polygon class="st2" points="1550.28,115.18 1479.81,185.66 1781.02,486.86 1851.49,486.86 1851.49,416.39 "/>
<g>
	
		<rect x="1917.04" y="389.23" transform="matrix(0.7071 -0.7071 0.7071 0.7071 150.2606 1567.166)" class="st3" width="99.66" height="425.95"/>
	
		<rect x="1413.72" y="421.26" transform="matrix(0.7071 -0.7071 0.7071 0.7071 95.3546 1172.9492)" class="st3" width="99.66" height="100.22"/>
</g>
<g>
	
		<rect x="1130.11" y="704.71" transform="matrix(0.7071 -0.7071 0.7071 0.7071 -188.1398 1055.4341)" class="st9" width="99.66" height="100.22"/>
	
		<rect x="1271.85" y="562.95" transform="matrix(0.7071 -0.7071 0.7071 0.7071 -46.3914 1114.1357)" class="st9" width="99.66" height="100.23"/>
	
		<rect x="988.2" y="846.48" transform="matrix(0.7071 -0.7071 0.7071 0.7071 -329.953 996.6025)" class="st9" width="99.66" height="100.23"/>
</g>
</svg>
