<?xml version="1.0" encoding="utf-8"?>
<!-- Generator: Adobe Illustrator 24.0.0, SVG Export Plug-In . SVG Version: 6.00 Build 0)  -->
<svg version="1.1" id="Calque_1" xmlns="http://www.w3.org/2000/svg" xmlns:xlink="http://www.w3.org/1999/xlink" x="0px" y="0px"
	 viewBox="0 0 512 512" style="enable-background:new 0 0 512 512;" xml:space="preserve">
<style type="text/css">
	.st0{fill:#6D6D6D;}
	.st1{fill:#565656;}
	.st2{fill:#00DF97;}
	.st3{fill:#00B579;}
	.st4{fill:#82807F;}
	.st5{fill:#00FBAA;}
	.st6{fill:#C1BAB8;}
	.st7{fill:#B7A6A3;}
	.st8{fill:#FC4830;}
	.st9{fill:#E81610;}
	.st10{fill:#F1EDED;}
	.st11{fill:#DAD0CD;}
	.st12{fill:#FF756E;}
	.st13{fill:#FBDBB7;}
</style>
<path class="st0" d="M209.75,435.99c0,9.21-0.95,18.19-2.76,26.85c-3.38,16.2-9.75,31.3-18.53,44.68c-3.91,5.97-12.6,5.97-16.52,0
	c-6.33-9.66-11.41-20.2-15.02-31.4c-1.4-4.33-2.57-8.77-3.51-13.28c-1.81-8.66-2.76-17.64-2.76-26.85
	c0-23.54,6.21-45.61,17.09-64.67c1.34-2.34,2.73-4.62,4.2-6.86c3.91-5.98,12.6-5.98,16.52,0C201.92,385,209.75,409.57,209.75,435.99
	z"/>
<path class="st1" d="M184.57,424.1c-3.34,0-6.41-2.18-7.41-5.54l-8.74-29.54c-1.21-4.09,1.12-8.39,5.21-9.6
	c4.09-1.21,8.39,1.12,9.6,5.22l8.74,29.54c1.21,4.09-1.12,8.39-5.21,9.6C186.03,424,185.29,424.1,184.57,424.1z"/>
<path class="st1" d="M168.37,446.56c-2.51,9.52-6.02,18.77-10.38,27.52c-0.34,0.69-0.69,1.37-1.06,2.04
	c-1.4-4.33-2.57-8.77-3.51-13.28c-1.8-8.66-2.76-17.64-2.76-26.85c0-23.54,6.21-45.61,17.09-64.67
	C174.72,395.82,174.95,421.7,168.37,446.56z"/>
<path class="st2" d="M206.99,462.84c-3.38,16.2-9.76,31.3-18.53,44.68c-3.92,5.97-12.6,5.97-16.52,0
	c-6.33-9.66-11.41-20.2-15.02-31.4c-1.4-4.33-2.57-8.77-3.51-13.28c3.56-1.96,7.37-3.56,11.36-4.71c4.9-1.43,10.07-2.18,15.42-2.18
	C189.91,455.95,199.05,458.46,206.99,462.84z"/>
<path class="st3" d="M164.78,458.13c-1.94,5.45-4.22,10.79-6.79,15.95c-0.34,0.69-0.69,1.36-1.06,2.04
	c-1.4-4.33-2.57-8.77-3.51-13.28C156.98,460.88,160.79,459.28,164.78,458.13z"/>
<path class="st4" d="M156.98,443.55c-2.35,8.9-5.57,17.34-9.53,25.25c-7.41,14.8-17.44,27.76-29.34,38.46
	c-5.31,4.77-13.71,2.55-15.97-4.22c-5.06-15.19-7.36-31.41-6.48-47.94c0.47-8.84,1.85-17.76,4.2-26.66
	c6.76-25.54,20.61-47.3,38.88-63.71c5.31-4.78,13.71-2.55,15.96,4.22C162.46,392.25,163.74,418.01,156.98,443.55z"/>
<path class="st0" d="M134.5,431.45c-0.53,0-1.06-0.05-1.6-0.17c-4.18-0.88-6.85-4.97-5.97-9.15l7.76-36.88
	c0.88-4.18,4.98-6.85,9.15-5.97c4.18,0.88,6.85,4.98,5.97,9.15l-7.75,36.88C141.29,428.95,138.08,431.45,134.5,431.45z"/>
<path class="st5" d="M147.45,468.8c-7.41,14.8-17.44,27.76-29.34,38.46c-5.31,4.77-13.71,2.55-15.97-4.22
	c-5.06-15.19-7.36-31.41-6.48-47.94c8.8-2.21,18.26-2.29,27.65,0.19C132.71,457.78,140.9,462.53,147.45,468.8z"/>
<path class="st6" d="M380.04,101.98c0,9.55-0.77,18.91-2.29,28.03c-4.2,25.59-14.07,49.27-28.25,69.71c-3.94,5.65-12.26,5.65-16.2,0
	c-0.65-0.93-1.29-1.88-1.91-2.83c-13.17-19.77-22.34-42.45-26.34-66.88c-1.51-9.12-2.29-18.48-2.29-28.03
	c0-11.13,1.06-22.02,3.08-32.55c0.8-4.16,1.75-8.26,2.85-12.3c5.17-19.17,13.58-37,24.61-52.88c3.94-5.65,12.26-5.65,16.2,0
	c13.36,19.23,22.88,41.33,27.46,65.18C378.98,79.96,380.04,90.85,380.04,101.98z"/>
<path class="st7" d="M331.39,196.88c-13.17-19.77-22.34-42.45-26.34-66.88c-1.51-9.12-2.29-18.48-2.29-28.03
	c0-11.13,1.06-22.01,3.08-32.55c0.8-4.16,1.75-8.26,2.84-12.3c0.58,0.92,1.14,1.84,1.7,2.78c5.95,9.96,10.99,20.58,14.98,31.55
	c3.46,9.48,6.12,19.23,7.95,28.99C338.13,145.95,337.48,171.65,331.39,196.88z"/>
<path class="st8" d="M380.04,101.98c0,9.55-0.77,18.91-2.29,28.03l-32.89-32.89c-1.91-1.91-5.03-1.91-6.94,0l-8.14,8.14L305.05,130
	c-1.51-9.12-2.29-18.48-2.29-28.03c0-11.13,1.06-22.02,3.08-32.55l6.38-6.38l25.7-25.71c1.91-1.91,5.03-1.91,6.94,0l32.09,32.09
	C378.98,79.96,380.04,90.85,380.04,101.98z"/>
<path class="st9" d="M329.79,105.25L305.05,130c-1.51-9.12-2.29-18.48-2.29-28.03c0-11.13,1.06-22.01,3.08-32.55l6.38-6.38
	c5.16,9.04,9.58,18.58,13.15,28.4C327.03,96,328.5,100.61,329.79,105.25z"/>
<path class="st10" d="M319.03,197.76c-1.77,6.66-9.59,9.51-15.21,5.54c-0.97-0.69-1.94-1.38-2.89-2.09
	c-19.08-14.07-35.41-32.22-47.5-53.75c-4.54-8.05-8.47-16.59-11.73-25.55c-3.81-10.46-6.54-21.05-8.23-31.65
	c-0.75-4.65-1.3-9.3-1.66-13.95c-1.49-19.3,0.34-38.44,5.16-56.69c1.77-6.66,9.59-9.51,15.22-5.54c19.13,13.5,35.62,31,48.1,51.86
	c5.5,9.21,10.21,19.08,14.02,29.54c3.27,8.97,5.74,18.03,7.44,27.11C326.55,148.08,325.38,173.7,319.03,197.76z"/>
<path class="st11" d="M300.93,201.21c-19.08-14.07-35.41-32.22-47.5-53.75c-4.54-8.06-8.47-16.59-11.73-25.55
	c-3.81-10.46-6.54-21.05-8.23-31.65c-0.75-4.65-1.3-9.3-1.66-13.96c0.8,0.62,1.59,1.26,2.38,1.89c9,7.32,17.37,15.57,24.88,24.53
	c6.49,7.72,12.32,15.98,17.38,24.51C289.93,150,298.18,174.87,300.93,201.21z"/>
<path class="st12" d="M241.69,121.9c-3.8-10.46-6.53-21.05-8.24-31.64l19.18-41.12c1.14-2.46,4.06-3.52,6.52-2.38l41.12,19.18
	c5.5,9.21,10.22,19.07,14.03,29.54c3.27,8.97,5.74,18.04,7.44,27.12l-42.14-19.65c-2.45-1.14-5.38-0.08-6.52,2.38l-19.65,42.14
	C248.89,139.41,244.96,130.88,241.69,121.9z"/>
<path class="st6" d="M277.05,215.2c-3.34-0.9-6.66-1.91-9.94-3.03c-20.34-6.88-39.58-17.66-56.51-32.21
	c-7.02-6-13.63-12.68-19.77-20c-7.16-8.52-13.34-17.54-18.57-26.91c-2.73-4.9-5.2-9.89-7.4-14.97
	c-7.36-16.92-11.82-34.69-13.46-52.62c-0.62-6.86,5.76-12.21,12.41-10.41C186.4,61.19,207.9,72,226.75,87.33
	c8.32,6.77,16.13,14.43,23.29,22.96c6.14,7.31,11.56,14.98,16.26,22.95c13.23,22.3,20.9,46.78,23.16,71.55
	C290.07,211.64,283.7,217,277.05,215.2z"/>
<path class="st7" d="M267.11,212.16c-20.34-6.88-39.58-17.66-56.51-32.21c-7.02-6-13.63-12.68-19.77-20
	c-7.16-8.52-13.34-17.54-18.57-26.91c-2.73-4.89-5.2-9.89-7.4-14.96c9.61,3.58,18.98,8,27.91,13.15
	c8.73,5.04,17.05,10.79,24.72,17.09c21.12,17.3,37.75,38.64,49.41,63.41C266.98,211.88,267.05,212.02,267.11,212.16z"/>
<path class="st8" d="M266.29,133.23l-46.32-4.05c-2.7-0.24-5.09,1.75-5.32,4.45l-1.02,11.62l-3.04,34.7
	c-7.02-6.01-13.63-12.68-19.76-20c-7.16-8.52-13.34-17.54-18.57-26.91l1.01-11.58l2.95-33.63c0.23-2.7,2.62-4.69,5.32-4.46
	l45.2,3.96c8.32,6.77,16.13,14.43,23.29,22.95C256.17,117.6,261.59,125.27,266.29,133.23z"/>
<path class="st9" d="M213.63,145.25l-3.03,34.7c-7.02-6-13.63-12.68-19.77-20c-7.16-8.52-13.34-17.54-18.57-26.91l1.01-11.58
	c6.68,2.86,13.2,6.12,19.5,9.77C200.06,135.44,207.07,140.14,213.63,145.25z"/>
<path class="st10" d="M248.17,230.77c-4.8,0.4-9.62,0.6-14.45,0.6c-20.14-0.02-40.48-3.59-60.05-10.98
	c-8.66-3.26-17.14-7.26-25.42-12.04c-9.64-5.57-18.53-11.93-26.66-18.94c-3.84-3.33-7.52-6.81-11.01-10.42
	c-13.18-13.64-23.83-29.21-31.71-45.95c-2.92-6.24,1.24-13.45,8.1-14.02c23.33-1.95,47.23,0.85,70.18,8.81
	c10.15,3.51,20.1,8.04,29.74,13.6c8.27,4.78,15.99,10.13,23.13,16c20.07,16.44,35.64,36.82,46.24,59.32
	C259.19,222.98,255.03,230.18,248.17,230.77z"/>
<path class="st11" d="M233.72,231.37c-20.14-0.02-40.48-3.59-60.05-10.98c-8.66-3.26-17.14-7.26-25.42-12.04
	c-9.64-5.57-18.53-11.93-26.65-18.94c-3.85-3.33-7.52-6.81-11.01-10.42c8.88,0.27,17.8,1.18,26.59,2.74
	c9.94,1.75,19.71,4.3,29.08,7.61C191.73,198.27,214.44,212.4,233.72,231.37z"/>
<path class="st12" d="M165.26,188.99l8.41,31.39c-8.66-3.26-17.14-7.26-25.42-12.04c-9.64-5.57-18.53-11.93-26.66-18.94l-2.67-9.97
	l-9.07-33.86c-0.71-2.62,0.85-5.31,3.46-6.02l43.82-11.74c10.15,3.51,20.1,8.04,29.74,13.6c8.27,4.78,15.99,10.13,23.13,16
	l-44.92,12.03c-2.62,0.71-4.17,3.4-3.46,6.02L165.26,188.99z"/>
<path class="st6" d="M223.27,256.32c-7.75,3.57-15.79,6.58-24.05,8.98c-15.82,4.59-32.46,6.94-49.5,6.74
	c-9.24-0.1-18.59-0.96-28-2.62c-10.96-1.93-21.49-4.87-31.52-8.69c-4.5-1.71-8.9-3.61-13.19-5.68
	c-17.35-8.34-32.92-19.45-46.24-32.68c-4.88-4.86-3.43-13.05,2.82-15.95c21.25-9.81,44.67-15.35,68.96-15.72
	c10.72-0.16,21.63,0.69,32.59,2.62c9.4,1.66,18.49,4.04,27.2,7.12c24.48,8.59,46.09,22.4,63.74,39.93
	C230.96,245.23,229.52,253.42,223.27,256.32z"/>
<path class="st7" d="M199.21,265.29c-15.82,4.59-32.46,6.94-49.5,6.74c-9.25-0.1-18.6-0.96-28-2.62
	c-10.96-1.93-21.49-4.87-31.52-8.69c-4.5-1.71-8.9-3.61-13.19-5.68c4.89-1.29,9.84-2.37,14.82-3.25c9.93-1.75,20-2.69,29.92-2.79
	c0.71-0.01,1.43-0.02,2.15-0.02C150.05,248.99,175.38,254.48,199.21,265.29z"/>
<path class="st8" d="M133.77,249.26l15.95,22.78c-9.24-0.1-18.59-0.96-28-2.62c-10.96-1.93-21.49-4.87-31.52-8.69l-5.3-7.57
	l-20.73-29.6c-1.56-2.23-1.02-5.28,1.2-6.84l37.17-26.02c10.73-0.16,21.63,0.69,32.59,2.62c9.4,1.66,18.49,4.04,27.2,7.12
	l-38.09,26.67c-2.22,1.55-2.76,4.61-1.21,6.83L133.77,249.26z"/>
<path class="st9" d="M149.71,272.04c-9.24-0.1-18.59-0.96-28-2.62c-10.96-1.93-21.49-4.87-31.52-8.69l-5.3-7.57
	c2.3-0.5,4.61-0.95,6.93-1.36c9.93-1.75,20-2.69,29.92-2.79c0.71-0.01,1.43-0.02,2.15-0.02c3.31,0,6.59,0.09,9.88,0.26
	L149.71,272.04z"/>
<path class="st10" d="M107.29,339.5c-10.96,1.93-21.86,2.78-32.59,2.62c-24.29-0.37-47.71-5.91-68.96-15.72
	c-6.25-2.89-7.69-11.09-2.81-15.95c16.61-16.49,36.72-29.7,59.42-38.36c10.03-3.82,20.56-6.76,31.52-8.69
	c9.4-1.66,18.76-2.52,28-2.62c25.93-0.3,50.97,5.29,73.55,15.72c6.25,2.89,7.69,11.09,2.81,15.95
	c-17.66,17.52-39.27,31.35-63.74,39.93C125.78,335.45,116.69,337.84,107.29,339.5z"/>
<path class="st12" d="M107.29,339.5c-10.96,1.93-21.86,2.78-32.59,2.62l-37.17-26.03c-2.22-1.55-2.76-4.61-1.21-6.84l26.03-37.17
	c10.03-3.82,20.56-6.76,31.52-8.69c9.4-1.66,18.76-2.52,28-2.62L95.2,298.88c-1.55,2.22-1.02,5.28,1.2,6.83l38.09,26.67
	C125.78,335.45,116.69,337.84,107.29,339.5z"/>
<path class="st5" d="M171.57,371.47l-29.04-11.31c-5.05-1.96-7.55-7.66-5.59-12.71l5.66-14.52c16.75-43.02,45.7-79.75,83.73-106.23
	c38.94-27.11,84.68-41.44,132.28-41.44h15.58c5.42,0,9.82,4.39,9.82,9.81v31.16c0,5.42-4.39,9.81-9.82,9.81h-15.58
	c-37.17,0-72.88,11.18-103.25,32.33c-29.72,20.7-52.34,49.39-65.42,82.98l-5.66,14.52C182.31,370.94,176.62,373.44,171.57,371.47z"
	/>
<path class="st3" d="M190.05,313.62c-1.3,0-2.62-0.33-3.83-1.02c-3.7-2.12-4.99-6.84-2.87-10.54
	c13.97-24.43,32.87-45.04,56.16-61.26c31.68-22.06,68.91-33.72,107.67-33.72c4.27,0,7.73,3.46,7.73,7.73c0,4.27-3.46,7.73-7.73,7.73
	c-35.59,0-69.77,10.7-98.84,30.95c-21.39,14.89-38.74,33.82-51.57,56.25C195.33,312.22,192.73,313.62,190.05,313.62z"/>
<path class="st13" d="M207.04,342.14c0,24.68-20.02,44.7-44.7,44.7c-24.69,0-44.7-20.02-44.7-44.7c0-24.69,20.02-44.7,44.7-44.7
	C187.02,297.44,207.04,317.45,207.04,342.14z"/>
<path class="st8" d="M184.57,334.39h-6.37l-8.13-8.14v-6.37c0-4.27-3.46-7.73-7.73-7.73c-4.27,0-7.73,3.46-7.73,7.73v6.37
	l-8.13,8.14h-6.37c-4.27,0-7.73,3.46-7.73,7.73c0,4.27,3.46,7.73,7.73,7.73h6.37l8.13,8.13v6.37c0,4.27,3.46,7.73,7.73,7.73
	c4.27,0,7.73-3.46,7.73-7.73v-6.37l8.13-8.13h6.37c4.27,0,7.73-3.46,7.73-7.73C192.3,337.85,188.84,334.39,184.57,334.39z
	 M164.07,342.12l-1.73,1.73l-1.73-1.73l1.73-1.73L164.07,342.12z"/>
</svg>
