<?xml version="1.0" encoding="utf-8"?>
<!-- Generator: Adobe Illustrator 24.0.0, SVG Export Plug-In . SVG Version: 6.00 Build 0)  -->
<svg version="1.1" id="Calque_1" xmlns="http://www.w3.org/2000/svg" xmlns:xlink="http://www.w3.org/1999/xlink" x="0px" y="0px"
	 viewBox="0 0 512 512" style="enable-background:new 0 0 512 512;" xml:space="preserve">
<style type="text/css">
	.st0{fill:#FFB74F;}
	.st1{fill:#FF9A00;}
	.st2{fill:#3A4DE3;}
	.st3{fill:#6D76E7;}
	.st4{fill:#E1E4FB;}
	.st5{fill:#C5C9F7;}
	.st6{fill:#FF0019;}
	.st7{fill:#E10013;}
	.st8{fill:#FF4E0A;}
</style>
<g id="surface1">
	<path class="st0" d="M0,367h512v145H0V367z"/>
	<path class="st1" d="M256,367h256v145H256V367z"/>
	<path class="st2" d="M378.03,367H512v145H378.03V367z"/>
	<path class="st3" d="M64.5,424.5h30v30h-30V424.5z"/>
	<path class="st3" d="M120,424.5h30v30h-30V424.5z"/>
	<path class="st3" d="M175.5,424.5h30v30h-30V424.5z"/>
	<path class="st3" d="M231,424.5h30v30h-30V424.5z"/>
	<path class="st3" d="M286.5,424.5h30v30h-30V424.5z"/>
	<path class="st4" d="M419,163c0,41.37-15.49,79.18-40.97,107.95C348.14,304.7,304.51,326,256,326s-92.14-21.3-122.03-55.05
		C108.49,242.18,93,204.37,93,163C93,73.12,166.12,0,256,0S419,73.12,419,163z"/>
	<path class="st5" d="M256,326V0c89.88,0,163,73.12,163,163c0,41.37-15.49,79.18-40.97,107.95C348.14,304.7,304.51,326,256,326z"/>
	<path class="st2" d="M256,424.5h5v30h-5V424.5z"/>
	<path class="st2" d="M286.5,424.5h30v30h-30V424.5z"/>
	<path class="st3" d="M378.03,270.95C348.14,304.7,304.51,326,256,326s-92.14-21.3-122.03-55.05c6.57-15.76,16.21-30.15,28.53-42.47
		c12.21-12.21,26.38-21.73,41.8-28.28c-16.33-14.37-26.67-35.41-26.67-58.83C177.63,98.16,212.79,63,256,63s78.37,35.16,78.37,78.37
		c0,23.44-10.35,44.5-26.71,58.87C339.14,213.6,364.65,238.87,378.03,270.95z"/>
	<path class="st2" d="M378.03,270.95C348.14,304.7,304.51,326,256,326V63c43.21,0,78.37,35.16,78.37,78.37
		c0,23.44-10.35,44.5-26.71,58.87C339.14,213.6,364.65,238.87,378.03,270.95z"/>
</g>
<polygon class="st6" points="101.23,70.96 -37.28,171.58 -16.02,200.84 84.06,128.14 86.7,215.22 127.22,208.14 124.19,108.29 
	119.76,102.2 122.49,100.22 "/>
<polygon class="st7" points="239.75,-29.66 101.23,70.96 122.49,100.22 127.9,96.29 135.19,106.32 223.66,138.08 242.92,101.74 
	160.92,72.3 261,-0.4 "/>
<path class="st6" d="M93.4,60.17l7.63,33.28l29.29,17.55c16.56-12.03,21.72-33.16,11.52-47.2C131.64,49.77,109.96,48.15,93.4,60.17z
	"/>
<path class="st8" d="M81.88,107.37c10.2,14.04,31.89,15.67,48.44,3.64L93.4,60.17C76.84,72.2,71.68,93.33,81.88,107.37z"/>
</svg>
