<?xml version="1.0" encoding="utf-8"?>
<!-- Generator: Adobe Illustrator 24.0.0, SVG Export Plug-In . SVG Version: 6.00 Build 0)  -->
<svg version="1.1" id="Calque_1" xmlns="http://www.w3.org/2000/svg" xmlns:xlink="http://www.w3.org/1999/xlink" x="0px" y="0px"
	 viewBox="0 0 512 512" style="enable-background:new 0 0 512 512;" xml:space="preserve">
<style type="text/css">
	.st0{fill:#99D8FF;}
	.st1{fill:#FFFFFF;}
	.st2{fill:#2E97E5;}
</style>
<path class="st0" d="M256,32.71c-126.82,0-230,103.46-230,230.62c0,94.88,59.31,181.27,147.54,214.97
	c3.68,1.47,7.82,1.24,11.39-0.49c3.56-1.75,6.27-4.87,7.45-8.67l43.12-138.09c2.04-6.55-0.77-13.64-6.75-16.92
	c-18.66-10.32-30.24-29.78-30.24-50.79c0-31.8,25.78-57.66,57.5-57.66c31.71,0,57.5,25.86,57.5,57.66
	c0,21.01-11.58,40.48-30.24,50.83c-5.98,3.28-8.83,10.38-6.75,16.92l43.12,138.08c1.18,3.81,3.88,6.92,7.44,8.68
	c1.98,0.95,4.14,1.44,6.27,1.44c1.72,0,3.47-0.31,5.12-0.95C426.71,444.61,486,358.21,486,263.34C486,136.18,382.81,32.71,256,32.71
	L256,32.71z"/>
<path class="st1" d="M256,90.95c-93.74,0-170.02,76.48-170.02,170.48c0,70.13,45,134,110.23,158.91c2.72,1.08,5.78,0.91,8.42-0.37
	c2.64-1.3,4.63-3.6,5.5-6.41l22.5-72.03c1.54-7.16-1.73-14.58-8.22-18.14c-21.63-11.96-35.06-34.52-35.06-58.88
	c0-36.86,29.89-66.84,66.65-66.84c36.75,0,66.65,29.98,66.65,66.84c0,24.36-13.43,46.92-35.05,58.92
	c-6.46,3.55-9.76,10.93-8.24,18.06l22.51,72.09c0.87,2.81,2.87,5.12,5.5,6.42c1.47,0.7,3.07,1.07,4.64,1.07
	c1.27,0,2.57-0.23,3.78-0.7c65.24-24.93,110.22-88.8,110.22-158.93C426.02,167.43,349.74,90.95,256,90.95z"/>
<path class="st2" d="M256,113.61c-80.87,0-146.67,65.98-146.67,147.07c0,60.5,38.82,115.59,95.09,137.09
	c2.35,0.93,4.99,0.79,7.26-0.31c2.27-1.12,4-3.11,4.75-5.53l19.41-62.14c1.33-6.18-1.5-12.57-7.09-15.65
	c-18.66-10.32-30.24-29.78-30.24-50.79c0-31.8,25.78-57.66,57.5-57.66c31.71,0,57.5,25.86,57.5,57.66
	c0,21.01-11.58,40.48-30.24,50.83c-5.57,3.06-8.42,9.43-7.11,15.58l19.42,62.19c0.75,2.43,2.48,4.41,4.75,5.53
	c1.27,0.61,2.64,0.92,4,0.92c1.1,0,2.21-0.2,3.26-0.61c56.28-21.51,95.09-76.6,95.09-137.1C402.67,179.59,336.87,113.61,256,113.61z
	"/>
</svg>
