<?xml version="1.0" encoding="utf-8"?>
<!-- Generator: Adobe Illustrator 24.0.0, SVG Export Plug-In . SVG Version: 6.00 Build 0)  -->
<svg version="1.1" id="Calque_1" xmlns="http://www.w3.org/2000/svg" xmlns:xlink="http://www.w3.org/1999/xlink" x="0px" y="0px"
	 viewBox="0 0 256 255" style="enable-background:new 0 0 256 255;" xml:space="preserve">
<style type="text/css">
	.st0{fill:#E0234E;}
</style>
<g>
	<path class="st0" d="M150.74,0c-1.85,0-3.57,0.4-5.16,0.93c3.37,2.25,5.22,5.22,6.15,8.59c0.07,0.46,0.2,0.79,0.26,1.26
		c0.07,0.4,0.13,0.79,0.13,1.19c0.26,5.82-1.52,6.54-2.78,9.98c-1.92,4.43-1.39,9.19,0.93,13.02c0.2,0.46,0.46,0.99,0.79,1.45
		c-2.51-16.73,11.44-19.24,14.02-24.46c0.2-4.56-3.57-7.6-6.54-9.72C155.69,0.53,153.12,0,150.74,0z M171.76,3.77
		c-0.26,1.52-0.07,1.12-0.13,1.92c-0.07,0.53-0.07,1.19-0.13,1.72c-0.13,0.53-0.26,1.06-0.46,1.59c-0.13,0.53-0.33,1.06-0.53,1.59
		c-0.26,0.53-0.46,0.99-0.73,1.52c-0.2,0.26-0.33,0.53-0.53,0.79c-0.13,0.2-0.27,0.4-0.4,0.59c-0.33,0.46-0.66,0.93-0.99,1.32
		c-0.4,0.4-0.73,0.86-1.19,1.19c0,0.07,0,0.07,0,0.07c-0.4,0.33-0.79,0.73-1.26,1.06c-1.39,1.06-2.98,1.85-4.43,2.84
		c-0.46,0.33-0.93,0.59-1.32,0.99c-0.46,0.33-0.86,0.66-1.26,1.06c-0.46,0.4-0.79,0.79-1.19,1.26c-0.33,0.4-0.73,0.86-0.99,1.32
		c-0.33,0.46-0.66,0.93-0.92,1.39c-0.26,0.53-0.46,0.99-0.73,1.52c-0.2,0.53-0.4,0.99-0.53,1.52c-0.2,0.6-0.33,1.12-0.46,1.65
		c-0.07,0.26-0.07,0.59-0.13,0.86c-0.07,0.26-0.07,0.53-0.13,0.79c0,0.53-0.07,1.12-0.07,1.65c0,0.4,0,0.79,0.07,1.19
		c0,0.53,0.07,1.06,0.2,1.65c0.07,0.53,0.2,1.06,0.33,1.59c0.2,0.53,0.33,1.06,0.53,1.59c0.13,0.33,0.33,0.66,0.46,0.93l-15.21-5.88
		c-2.58-0.73-5.09-1.39-7.67-1.98c-1.39-0.33-2.78-0.66-4.17-0.99c-3.97-0.79-8-1.39-12.03-1.78c-0.13,0-0.2-0.07-0.33-0.07
		c-3.97-0.4-7.87-0.59-11.83-0.59c-2.91,0-5.82,0.13-8.66,0.33c-4.03,0.26-8.07,0.79-12.1,1.45c-0.99,0.13-1.98,0.33-2.98,0.53
		c-2.05,0.4-4.03,0.86-5.95,1.32c-0.99,0.26-1.98,0.53-2.98,0.79c-0.99,0.4-1.92,0.86-2.84,1.26c-0.73,0.33-1.45,0.66-2.18,0.99
		c-0.13,0.07-0.26,0.07-0.33,0.13c-0.66,0.33-1.26,0.6-1.85,0.93c-0.2,0.07-0.33,0.13-0.46,0.2c-0.73,0.33-1.45,0.73-2.05,1.06
		c-0.46,0.2-0.93,0.46-1.32,0.66c-0.2,0.13-0.46,0.26-0.59,0.33c-0.6,0.33-1.19,0.66-1.72,0.99c-0.6,0.33-1.12,0.66-1.59,0.99
		c-0.46,0.33-0.93,0.6-1.32,0.93c-0.07,0.07-0.13,0.07-0.2,0.13c-0.4,0.26-0.86,0.6-1.26,0.93c0,0-0.07,0.07-0.13,0.13
		c-0.33,0.26-0.66,0.53-0.99,0.79c-0.13,0.07-0.26,0.2-0.4,0.26c-0.33,0.26-0.66,0.6-0.99,0.86c-0.07,0.13-0.2,0.2-0.26,0.26
		c-0.4,0.4-0.79,0.73-1.19,1.12c-0.07,0-0.07,0.07-0.13,0.13c-0.4,0.33-0.79,0.73-1.19,1.12c-0.07,0.07-0.07,0.13-0.13,0.13
		c-0.33,0.33-0.66,0.66-0.99,1.06c-0.13,0.13-0.33,0.26-0.46,0.4c-0.33,0.4-0.73,0.79-1.12,1.19c-0.07,0.13-0.2,0.2-0.26,0.33
		c-0.53,0.53-0.99,1.06-1.52,1.59c-0.07,0.07-0.13,0.13-0.2,0.2c-1.06,1.12-2.18,2.25-3.37,3.24c-1.19,1.06-2.45,2.05-3.7,2.91
		c-1.32,0.93-2.58,1.72-3.97,2.51c-1.32,0.73-2.71,1.39-4.17,1.98c-1.39,0.59-2.84,1.12-4.3,1.59c-2.78,0.6-5.62,1.72-8.07,1.92
		c-0.53,0-1.12,0.13-1.65,0.2c-0.59,0.13-1.12,0.26-1.65,0.4c-0.53,0.2-1.06,0.4-1.59,0.6c-0.53,0.2-1.06,0.46-1.59,0.73
		c-0.46,0.33-0.99,0.6-1.45,0.93c-0.46,0.33-0.93,0.73-1.32,1.12c-0.46,0.33-0.93,0.79-1.32,1.19c-0.4,0.46-0.79,0.86-1.12,1.32
		c-0.33,0.53-0.73,0.99-0.99,1.52c-0.33,0.46-0.66,0.99-0.93,1.52c-0.26,0.6-0.53,1.12-0.73,1.72c-0.2,0.53-0.4,1.12-0.6,1.72
		c-0.13,0.53-0.26,1.06-0.33,1.59c0,0.07-0.07,0.13-0.07,0.2c-0.13,0.59-0.13,1.39-0.2,1.78C0.07,84.29,0,84.69,0,85.15
		c0,0.26,0,0.6,0.07,0.86c0.07,0.46,0.13,0.86,0.26,1.26c0.13,0.4,0.26,0.79,0.46,1.19c0,0.07,0,0.07,0,0.07
		c0.2,0.4,0.46,0.79,0.73,1.19c0.26,0.4,0.53,0.79,0.86,1.19c0.33,0.33,0.73,0.73,1.12,1.06c0.4,0.4,0.79,0.73,1.26,1.06
		c1.59,1.39,1.98,1.85,4.03,2.91c0.33,0.2,0.66,0.33,1.06,0.53c0.07,0,0.13,0.07,0.2,0.07c0,0.13,0,0.2,0.07,0.33
		c0.07,0.53,0.2,1.06,0.33,1.59c0.13,0.59,0.33,1.12,0.53,1.59c0.2,0.4,0.33,0.79,0.53,1.19c0.07,0.13,0.13,0.26,0.2,0.33
		c0.26,0.53,0.53,0.99,0.79,1.45c0.33,0.46,0.66,0.93,0.99,1.39c0.33,0.4,0.73,0.86,1.12,1.26c0.4,0.4,0.79,0.73,1.26,1.12
		c0,0,0.07,0.07,0.13,0.07c0.4,0.33,0.79,0.66,1.19,0.93c0.46,0.33,0.93,0.6,1.45,0.86c0.46,0.26,0.99,0.53,1.52,0.73
		c0.4,0.2,0.86,0.33,1.32,0.46c0.07,0.07,0.13,0.07,0.26,0.13c0.26,0.07,0.59,0.13,0.86,0.2c-0.2,3.57-0.26,6.94,0.26,8.13
		c0.59,1.32,3.5-2.71,6.41-7.34c-0.4,4.56-0.66,9.92,0,11.5c0.73,1.65,4.69-3.5,8.13-9.19c46.87-10.84,89.65,21.55,94.14,67.3
		c-0.86-7.14-9.65-11.11-13.69-10.12c-1.98,4.89-5.36,11.17-10.78,15.07c0.46-4.36,0.26-8.86-0.66-13.22
		c-1.45,6.08-4.3,11.77-8.2,16.66c-6.28,0.46-12.56-2.58-15.87-7.14c-0.26-0.2-0.33-0.59-0.53-0.86c-0.2-0.46-0.4-0.93-0.53-1.39
		c-0.2-0.46-0.33-0.92-0.4-1.39c-0.07-0.46-0.07-0.92-0.07-1.45c0-0.33,0-0.66,0-0.99c0.07-0.46,0.2-0.93,0.33-1.39
		c0.13-0.46,0.26-0.93,0.46-1.39c0.26-0.46,0.46-0.93,0.79-1.39c1.12-3.17,1.12-5.75-0.93-7.27c-0.4-0.26-0.79-0.46-1.26-0.66
		c-0.26-0.07-0.59-0.2-0.86-0.27c-0.2-0.07-0.33-0.13-0.53-0.2c-0.46-0.13-0.93-0.27-1.39-0.33c-0.46-0.13-0.93-0.2-1.39-0.2
		c-0.46-0.07-0.99-0.13-1.45-0.13c-0.33,0-0.66,0.07-0.99,0.07c-0.53,0-0.99,0.07-1.45,0.2c-0.46,0.07-0.93,0.13-1.39,0.26
		c-0.46,0.13-0.93,0.26-1.39,0.46c-0.46,0.2-0.86,0.4-1.32,0.6c-0.4,0.2-0.79,0.46-1.26,0.66c-15.4,10.05-6.21,33.59,4.3,40.39
		c-3.97,0.73-8,1.59-9.12,2.45c-0.07,0.07-0.13,0.13-0.13,0.13c2.84,1.72,5.82,3.17,8.92,4.43c4.23,1.39,8.73,2.64,10.71,3.17v0.07
		c5.49,1.12,11.04,1.52,16.66,1.19c29.29-2.05,53.29-24.33,57.65-53.68c0.13,0.6,0.26,1.12,0.4,1.72c0.2,1.19,0.46,2.45,0.59,3.7
		c0,0,0,0,0,0.07c0.13,0.59,0.2,1.19,0.27,1.72c0,0.13,0,0.2,0,0.26c0.07,0.59,0.13,1.19,0.13,1.72c0.07,0.73,0.13,1.45,0.13,2.18
		c0,0.33,0,0.66,0,1.06c0,0.33,0.07,0.73,0.07,1.06c0,0.4-0.07,0.79-0.07,1.19c0,0.33,0,0.66,0,0.93c0,0.46-0.07,0.86-0.07,1.32
		c0,0.26,0,0.53-0.07,0.86c0,0.46-0.07,0.93-0.07,1.46c-0.07,0.2-0.07,0.4-0.07,0.59c-0.07,0.53-0.13,0.99-0.2,1.52
		c0,0.2,0,0.4-0.07,0.59c-0.07,0.66-0.2,1.26-0.26,1.92v0.07v0.07c-0.13,0.6-0.26,1.26-0.4,1.85c0,0.07,0,0.13,0,0.2
		c-0.13,0.6-0.26,1.19-0.4,1.79c0,0.07-0.07,0.2-0.07,0.27c-0.13,0.59-0.26,1.19-0.46,1.79c0,0.07,0,0.13,0,0.2
		c-0.2,0.66-0.4,1.26-0.53,1.85c-0.07,0.07-0.07,0.13-0.07,0.13c-0.2,0.66-0.4,1.32-0.6,1.98c-0.26,0.66-0.46,1.26-0.73,1.92
		c-0.26,0.66-0.46,1.32-0.73,1.92c-0.26,0.66-0.53,1.26-0.79,1.92h-0.07c-0.26,0.6-0.53,1.26-0.86,1.85l0,0l0,0
		c-0.07,0.2-0.13,0.33-0.2,0.46c-0.07,0.07-0.07,0.13-0.13,0.2c-4.3,8.66-10.64,16.26-18.58,22.21c-0.53,0.33-1.06,0.73-1.59,1.12
		l0,0c-0.13,0.13-0.33,0.2-0.46,0.33c-0.46,0.33-0.93,0.66-1.45,0.99l0.2,0.4h0.07c0.93-0.13,1.85-0.26,2.78-0.4h0.07
		c1.72-0.26,3.44-0.59,5.16-0.93c0.46-0.07,0.99-0.2,1.45-0.33c0.33-0.07,0.6-0.13,0.93-0.2c0.46-0.07,0.93-0.2,1.39-0.26
		c0.4-0.13,0.79-0.2,1.19-0.33c6.61-1.59,13.03-3.77,19.17-6.35c-10.51,14.35-24.59,25.92-41.06,33.52
		c7.6-0.53,15.21-1.79,22.54-3.9c26.64-7.87,49.05-25.78,62.48-49.91c-2.71,15.27-8.79,29.82-17.78,42.51
		c6.41-4.23,12.3-9.12,17.65-14.68c14.81-15.47,24.53-35.11,27.83-56.2c2.25,10.45,2.91,21.22,1.92,31.87
		c47.73-66.58,3.97-135.6-14.35-153.78c-0.07-0.13-0.13-0.2-0.13-0.33c-0.07,0.07-0.07,0.07-0.07,0.13c0-0.07,0-0.07-0.07-0.13
		c0,0.79-0.07,1.59-0.13,2.38c-0.2,1.52-0.4,2.98-0.66,4.43c-0.33,1.45-0.73,2.91-1.12,4.36c-0.46,1.39-0.99,2.84-1.59,4.23
		c-0.59,1.32-1.26,2.71-1.98,4.03c-0.73,1.26-1.52,2.58-2.38,3.77c-0.86,1.26-1.79,2.45-2.71,3.57c-0.99,1.19-2.05,2.25-3.11,3.31
		c-0.66,0.59-1.26,1.12-1.92,1.65c-0.53,0.46-0.99,0.86-1.52,1.32c-1.19,0.93-2.38,1.78-3.7,2.58c-1.26,0.79-2.58,1.59-3.9,2.25
		c-1.39,0.66-2.78,1.26-4.17,1.85c-1.39,0.53-2.84,0.99-4.3,1.39c-1.46,0.4-2.97,0.73-4.43,0.99c-1.52,0.26-3.04,0.4-4.5,0.53
		c-1.06,0.07-2.12,0.13-3.17,0.13c-1.52,0-3.04-0.13-4.5-0.26c-1.52-0.13-3.04-0.33-4.5-0.66c-1.52-0.26-2.97-0.66-4.43-1.12h-0.07
		c1.46-0.13,2.91-0.26,4.36-0.53c1.52-0.26,2.98-0.6,4.43-0.99c1.46-0.4,2.91-0.86,4.3-1.39c1.45-0.53,2.84-1.19,4.17-1.85
		c1.39-0.66,2.64-1.39,3.97-2.18c1.26-0.86,2.51-1.72,3.7-2.64c1.19-0.93,2.31-1.92,3.37-2.98c1.12-0.99,2.12-2.12,3.11-3.24
		c0.99-1.19,1.92-2.38,2.78-3.57c0.13-0.2,0.26-0.46,0.4-0.66c0.66-1.06,1.32-2.12,1.92-3.17c0.73-1.32,1.39-2.64,1.98-4.03
		c0.59-1.39,1.12-2.78,1.59-4.23c0.46-1.39,0.79-2.84,1.12-4.3c0.26-1.52,0.53-2.98,0.66-4.43c0.13-1.52,0.26-3.04,0.26-4.5
		c0-1.06-0.07-2.12-0.13-3.17c-0.13-1.52-0.33-2.97-0.53-4.43c-0.26-1.52-0.6-2.98-0.99-4.43c-0.46-1.39-0.93-2.84-1.45-4.23
		c-0.53-1.39-1.19-2.78-1.85-4.1c-0.73-1.32-1.46-2.64-2.25-3.9c-0.86-1.26-1.72-2.45-2.64-3.64c-0.99-1.12-1.98-2.25-3.04-3.37
		c-0.53-0.53-1.12-1.12-1.72-1.65c-2.98-2.31-6.08-4.5-9.19-6.48c-0.46-0.26-0.86-0.46-1.32-0.66
		C175.86,5.16,173.81,4.43,171.76,3.77L171.76,3.77z"/>
</g>
</svg>
