<?xml version="1.0" encoding="utf-8"?>
<!-- Generator: Adobe Illustrator 24.0.0, SVG Export Plug-In . SVG Version: 6.00 Build 0)  -->
<svg version="1.1" id="Calque_1" xmlns="http://www.w3.org/2000/svg" xmlns:xlink="http://www.w3.org/1999/xlink" x="0px" y="0px"
	 viewBox="0 0 522.95 522.95" style="enable-background:new 0 0 522.95 522.95;" xml:space="preserve">
<style type="text/css">
	.st0{fill:#D7DEE2;}
	.st1{fill:#77959E;}
	.st2{fill:#A5D6A7;}
	.st3{fill:#FFCB5A;}
	.st4{fill:#80DEEA;}
	.st5{fill:#E76E54;}
</style>
<g>
	<path class="st0" d="M81.71,130.74H49.03V32.68h130.74v32.68H81.71V130.74z"/>
	<path class="st0" d="M114.39,163.42h65.37v32.68h-65.37V163.42z"/>
	<path class="st0" d="M196.11,343.18H49.03V228.79h32.68v81.71h114.39V343.18z"/>
	<path class="st0" d="M245.13,81.71h32.68v65.37h-32.68V81.71z"/>
	<path class="st0" d="M245.13,212.45h32.68v65.37h-32.68V212.45z"/>
	<path class="st0" d="M245.13,375.87h32.68v65.37h-32.68V375.87z"/>
	<path class="st0" d="M441.24,98.05h32.68v114.39h-32.68V98.05z"/>
</g>
<path class="st1" d="M441.24,32.68h32.68v32.68h-32.68V32.68z"/>
<path class="st0" d="M343.18,32.68h65.37v32.68h-65.37V32.68z"/>
<path class="st0" d="M343.18,457.58h65.37v32.68h-65.37V457.58z"/>
<path class="st1" d="M441.24,457.58h32.68v32.68h-32.68V457.58z"/>
<path class="st0" d="M441.24,310.5h32.68v114.39h-32.68V310.5z"/>
<path class="st2" d="M163.42,0h196.11v98.05H163.42V0z"/>
<path class="st2" d="M163.42,130.74h196.11v98.05H163.42V130.74z"/>
<path class="st3" d="M310.5,522.95h-98.05c-27.08,0-49.03-21.95-49.03-49.03c0-27.08,21.95-49.03,49.03-49.03h98.05
	c27.08,0,49.03,21.95,49.03,49.03C359.53,501,337.58,522.95,310.5,522.95z"/>
<path class="st4" d="M130.74,179.77c0,36.1-29.27,65.37-65.37,65.37C29.27,245.13,0,215.87,0,179.77
	c0-36.11,29.27-65.37,65.37-65.37C101.47,114.39,130.74,143.66,130.74,179.77z"/>
<path class="st4" d="M522.95,261.48c0,36.1-29.27,65.37-65.37,65.37c-36.11,0-65.37-29.27-65.37-65.37
	c0-36.11,29.27-65.37,65.37-65.37C493.68,196.11,522.95,225.37,522.95,261.48z"/>
<path class="st5" d="M261.48,395.51l-103.01-68.67l103.01-68.67l103,68.67L261.48,395.51z"/>
</svg>
