<?xml version="1.0" encoding="utf-8"?>
<!-- Generator: Adobe Illustrator 24.0.0, SVG Export Plug-In . SVG Version: 6.00 Build 0)  -->
<svg version="1.1" id="Capa_1" xmlns="http://www.w3.org/2000/svg" xmlns:xlink="http://www.w3.org/1999/xlink" x="0px" y="0px"
	 viewBox="0 0 2834.65 1700.79" style="enable-background:new 0 0 2834.65 1700.79;" xml:space="preserve">
<style type="text/css">
	.st0{fill:#F7931E;}
	.st1{fill:#ED1C24;}
	.st2{fill:#FBB03B;}
	.st3{fill:#0378A3;}
	.st4{fill:#29485A;}
	.st5{fill:#06AAE9;}
</style>
<path class="st0" d="M1258.78,778.33h112.77l3.98,57.65h230.62l-108.45-786.2C1493.76,21.26,1469.39,0,1440.59,0h-122.72l5.97,86.48
	l5.16,3.69c31.43,22.49,38.67,66.19,16.19,97.61c-3.76,5.26-8.24,9.98-13.3,14.01l5.97,86.48l9.28,8.04
	c29.2,25.28,32.38,69.45,7.1,98.65c-1.23,1.42-2.51,2.78-3.84,4.09l-4.67,4.53l29.81,144.13h-116.75"/>
<path class="st1" d="M2152.41,1700.79c-15.92,0-28.83-12.91-28.83-28.83V187.38c0-55.72-45.17-100.89-100.89-100.89
	c-55.72,0-100.89,45.17-100.89,100.89v1369.28c0,79.6-64.53,144.13-144.13,144.13s-144.13-64.53-144.13-144.13
	c0-15.92,12.91-28.83,28.83-28.83s28.83,12.91,28.83,28.83c0,47.76,38.72,86.48,86.48,86.48s86.48-38.72,86.48-86.48V187.38
	c0-87.57,70.98-158.55,158.55-158.55s158.55,70.98,158.55,158.55v1484.59C2181.24,1687.88,2168.33,1700.79,2152.41,1700.79z"/>
<path class="st2" d="M1222.92,0l-5.97,86.48l-5.16,3.69c-31.42,22.43-38.71,66.09-16.28,97.51c3.79,5.3,8.29,10.05,13.4,14.11
	l-5.97,86.48l-9.31,8.04c-29.19,25.27-32.38,69.41-7.11,98.61c1.24,1.43,2.53,2.81,3.88,4.13l4.67,4.53l-21.33,144.13h86.48
	c63.68,0,115.31,51.62,115.31,115.31s-51.63,115.31-115.31,115.31h-91.01l-3.95,57.65H934.65l108.42-786.2
	C1047,21.23,1071.41-0.03,1100.23,0H1222.92z"/>
<path class="st3" d="M855.2,835.98h374.75v115.31H855.2V835.98z"/>
<path class="st4" d="M914.29,951.29l-86.48,461.23c-5.71,38.42,8.19,77.14,37.01,103.17c41.01,41.02,104.69,48.86,154.43,19
	l8.39-5.02c32.38-19.42,54.37-52.31,59.96-89.65l86.13-488.73H914.29z"/>
<path class="st3" d="M1345.26,835.98h374.75v115.31h-374.75V835.98z"/>
<path class="st4" d="M1663.8,951.29l86.48,461.23c5.71,38.42-8.19,77.14-37.01,103.17c-41.01,41.02-104.69,48.86-154.43,19
	l-8.39-5.02c-32.38-19.42-54.37-52.31-59.96-89.65l-86.14-488.73H1663.8z"/>
<path d="M1258.78,720.67c-31.84,0-57.65-25.81-57.65-57.65s25.81-57.65,57.65-57.65c31.84,0,57.65,25.81,57.65,57.65
	S1290.62,720.67,1258.78,720.67z"/>
<g>
	<path class="st5" d="M739.89,230.62v-28.83h28.83v-57.65h-28.83v-28.83h-57.65v28.83h-28.83v57.65h28.83v28.83H739.89z"/>
	<path class="st5" d="M826.37,576.54h-57.65v28.83h-28.83v57.65h28.83v28.83h57.65v-28.83h28.83v-57.65h-28.83V576.54z"/>
	<path class="st5" d="M1748.83,57.65h-28.83V28.83h-57.65v28.83h-28.83v57.65h28.83v28.83h57.65v-28.83h28.83V57.65z"/>
</g>
<path d="M1416.11,280.71L1416.11,280.71c-4.73-1.62-9.49-3.12-14.29-4.5c0.8-3.24,1.53-6.48,2.21-9.75
	c10.82-52.52,3.74-94.83-20.41-108.75c-23.16-13.36-61.04,0.57-99.3,33.86c-3.77,3.29-7.46,6.67-11.05,10.15
	c-2.41-2.31-4.86-4.57-7.36-6.79c-40.09-35.6-80.28-50.6-104.41-36.63c-23.14,13.4-29.99,53.17-20.25,102.94
	c0.97,4.93,2.06,9.83,3.28,14.71c-5.69,1.61-11.18,3.34-16.43,5.17c-47,16.39-77.03,42.07-77.03,68.71
	c0,27.52,32.22,55.12,81.19,71.85c3.97,1.35,7.97,2.6,12.01,3.75c-1.31,5.25-2.47,10.54-3.49,15.85
	c-9.29,48.91-2.03,87.74,21.04,101.05c23.84,13.74,63.84-0.38,102.8-34.44c3.08-2.69,6.17-5.55,9.26-8.54
	c3.9,3.76,7.9,7.41,12,10.95c37.73,32.47,75,45.58,98.06,32.23c23.82-13.79,31.55-55.5,21.5-106.26c-0.77-3.88-1.66-7.84-2.66-11.87
	c2.81-0.83,5.57-1.69,8.26-2.58c50.9-16.86,84.01-44.13,84.01-72.01C1495.05,323.07,1464.06,297.21,1416.11,280.71z M1296.77,205.87
	c32.78-28.53,63.41-39.79,77.37-31.74c14.87,8.57,20.65,43.15,11.31,88.5c-0.61,2.95-1.28,5.9-2,8.83
	c-18.42-4.25-38.42-7.41-59.37-9.38c-12.2-17.37-24.84-33.17-37.53-46.84C1289.88,212.03,1293.29,208.91,1296.77,205.87z
	 M1182.15,372.57c4.02,7.76,8.21,15.42,12.59,22.97c4.46,7.71,9.11,15.31,13.94,22.8c-14.54-1.62-28.25-3.82-40.92-6.58
	C1171.68,399.1,1176.51,385.95,1182.15,372.57z M1182.13,327.96c-5.52-13.1-10.25-25.98-14.11-38.42
	c12.67-2.84,26.18-5.15,40.25-6.91c-4.71,7.35-9.25,14.81-13.61,22.37C1190.31,312.55,1186.13,320.21,1182.13,327.96z
	 M1192.21,350.26c5.84-12.16,12.14-24.1,18.88-35.79v0c6.74-11.69,13.92-23.12,21.53-34.27c13.2-1,26.74-1.52,40.43-1.52
	c13.75,0,27.3,0.53,40.5,1.53c7.53,11.13,14.67,22.52,21.39,34.16c6.76,11.66,13.15,23.54,19.14,35.62
	c-5.93,12.2-12.29,24.19-19.08,35.94h0c-6.73,11.68-13.83,23.14-21.3,34.37c-13.17,0.94-26.79,1.43-40.66,1.43
	c-13.82,0-27.26-0.43-40.2-1.27c-7.66-11.2-14.9-22.68-21.7-34.42C1204.39,374.36,1198.07,362.42,1192.21,350.26z M1351.44,395.41
	c4.47-7.75,8.76-15.59,12.88-23.52c5.93,13.53,10.94,26.61,14.91,39.06c-12.87,2.94-26.77,5.3-41.42,7.06
	C1342.5,410.56,1347.05,403.03,1351.44,395.41z M1364.14,327.97c-4.1-7.79-8.36-15.49-12.77-23.1c-4.34-7.5-8.84-14.9-13.5-22.2
	c14.17,1.79,27.74,4.17,40.48,7.08C1374.52,302,1369.75,314.83,1364.14,327.97z M1273.27,228.8c8.75,9.48,17.51,20.06,26.13,31.54
	c-17.48-0.83-34.99-0.83-52.48-0.01C1255.54,248.95,1264.38,238.38,1273.27,228.8z M1170.99,174.69c14.85-8.6,47.7,3.66,82.32,34.4
	c2.21,1.96,4.43,4.02,6.66,6.15c-12.9,13.85-25.64,29.62-37.82,46.8c-20.88,1.94-40.87,5.04-59.25,9.21
	c-1.13-4.53-2.15-9.09-3.05-13.68v0C1151.5,214.93,1157.05,182.77,1170.99,174.69z M1149.34,407.14c-3.68-1.05-7.33-2.2-10.96-3.43
	c-21.65-7.4-39.53-17.02-51.78-27.51c-11.01-9.43-16.57-18.79-16.57-26.39c0-16.17,24.1-36.79,64.3-50.8
	c5.05-1.75,10.14-3.36,15.28-4.81c5.56,18.07,12.84,36.97,21.64,56.07C1162.34,369.66,1154.95,388.86,1149.34,407.14z
	 M1252.13,493.59c-17.23,15.06-34.49,25.74-49.7,31.11h0c-13.67,4.83-24.56,4.96-31.14,1.17c-14.01-8.08-19.83-39.26-11.89-81.08
	c0.94-4.94,2.02-9.86,3.24-14.74c18.19,4.02,38.31,6.92,59.83,8.66c12.28,17.29,25.15,33.17,38.11,47.09
	C1257.83,488.47,1255.01,491.07,1252.13,493.59z M1273.79,472.16c-8.99-9.7-17.96-20.43-26.71-31.97c8.5,0.33,17.17,0.5,25.98,0.5
	c9.05,0,18-0.2,26.8-0.59C1291.21,451.85,1282.48,462.59,1273.79,472.16z M1388.97,498.55c-2.64,14.25-7.96,23.76-14.54,27.56
	c-13.99,8.1-43.92-2.43-76.18-30.2c-3.7-3.18-7.43-6.58-11.16-10.18c12.51-13.68,25.01-29.59,37.22-47.26
	c21.46-1.9,41.74-5.02,60.13-9.27c0.9,3.66,1.71,7.24,2.4,10.74C1391.27,462.39,1391.91,482.68,1388.97,498.55z M1405.07,403.82
	L1405.07,403.82c-2.43,0.8-4.92,1.58-7.46,2.33c-5.62-17.79-13.2-36.7-22.48-56.25c8.86-19.08,16.15-37.75,21.61-55.43
	c4.54,1.32,8.95,2.7,13.2,4.17c41.09,14.14,66.15,35.05,66.15,51.17C1476.08,366.97,1449.01,389.25,1405.07,403.82z"/>
<path d="M1273.05,310.16c21.9,0,39.65,17.75,39.65,39.65c0,21.9-17.75,39.65-39.65,39.65c-21.9,0-39.65-17.75-39.65-39.65
	C1233.41,327.91,1251.16,310.16,1273.05,310.16"/>
</svg>
