<svg version="1.0" xmlns="http://www.w3.org/2000/svg" width="894.667" height="894.667" viewBox="0 0 671 671"><path d="M0 291.2c0 285.6 0 291.2 1.9 289.3 6.9-7.2 86.2-109.8 126.4-163.4 21.4-28.6 26.8-36.8 34.7-52.9l5.4-11.2h52.3l.7 8.1c.4 4.5 1.6 11.3 2.6 15.3 2.4 8.7 32.8 107.7 33.3 108.2.6.7 16.7-20 16.7-21.5 0-1.3-14.9-47.8-26-81.3-2.7-8-6.5-17.8-8.5-21.7L236 353h59.8l.6 4.7c.7 5.8 16.9 64.3 17.7 64.3.3 0 8-9.3 17.1-20.8 29.5-37.2 29-36.4 30.3-44l.7-4.2h49.3l-7.6 7.7c-9.3 9.6-12.8 13.8-47.2 58.2-24.9 32.1-27.4 35.6-26.6 38 .4 1.4 2.2 7.2 3.9 12.8 1.7 5.7 3.5 10.3 4 10.3 2.4 0 79.7-103.3 87-116.3l5.4-9.7h48.5l.6 4.7c.3 2.7.8 6.7 1.1 8.9 1 8.2 31.5 113.8 44.8 154.9 16.9 52.6 25.2 74.9 28.5 76.9 3.5 2.2-1 2.6-29.7 2.6h-30.8l-1.2-8.8c-1.1-8.5-6.1-25.5-21.3-72.9l-7.4-23.3H363.4l-7.1 11.1-7 11.1 10.2 31.6c7 22 11.8 34.9 15.4 42L380 603l-30.1-.2-30.2-.3-1.7-8.6c-2.1-10.3-6-22.9-7.1-22.9-1.4 0-14.3 16.7-18.5 24.1l-4.2 7.4-24.1.3-24.1.2v-2.2c-.1-5.6-6.6-30.8-8-30.8-1.2 0-12.8 16.8-17.2 24.7l-4 7.3h-47.1l10.9-11.3c9-9.3 29.9-35.3 40.9-50.7l2.4-3.5-5.7-19.5-5.7-19.5-49.6-.3-49.5-.2L84 527.7c-12.9 16.8-27.2 35.4-31.8 41.1-8.7 11-22.2 30.6-22.2 32.3 0 .5-6.2.9-15 .9H0v67h669V0H0v291.2z"/><path d="M433.6 406.5c-4.3 7.4-14.1 20.8-29.5 40.4-7.5 9.5-14.2 18.2-15 19.2-1.3 1.9-.5 1.9 31.7 1.9h32.9l-7.4-23.3c-5.5-17.1-7.7-25.8-8.6-33.2l-1.2-10-2.9 5zm-258 3.4c-3.7 6.1-24.2 33.4-36.8 49.1l-6.8 8.5 16.5.3c9.1.1 23.8.1 32.8 0l16.3-.3-7.7-24.2c-4.3-13.4-8.2-27.5-8.9-31.5-.6-4-1.2-7.4-1.4-7.6-.2-.2-2 2.4-4 5.7zM279 511.1c-4.6 6.1-8.3 11.6-8.3 12.2.1 1.4 9.2 30.8 10 32 .3.6 14.8-17.5 17.8-22.2.6-1-8.2-27.9-10.3-31.7-.6-1-3.2 1.8-9.2 9.7z"/></svg>