<svg xmlns="http://www.w3.org/2000/svg" height="512pt" viewBox="0 0 512 512" width="512pt"><path d="M0 367h512v145H0zm0 0" fill="#ffb74f"/><path d="M256 367h256v145H256zm0 0" fill="#ff9a00"/><path d="M378.031 367H512v145H378.031zm0 0" fill="#3a4de3"/><path d="M64.5 424.5h30v30h-30zm55.5 0h30v30h-30zm55.5 0h30v30h-30zm55.5 0h30v30h-30zm55.5 0h30v30h-30zm0 0" fill="#6d76e7"/><path d="M419 163c0 41.371-15.488 79.18-40.969 107.95C348.141 304.7 304.511 326 256 326c-48.512 0-92.14-21.3-122.031-55.05C108.489 242.18 93 204.37 93 163 93 73.121 166.121 0 256 0s163 73.121 163 163zm0 0" fill="#e1e4fb"/><path d="M256 326V0c89.879 0 163 73.121 163 163 0 41.371-15.488 79.18-40.969 107.95C348.141 304.7 304.511 326 256 326zm0 0" fill="#c5c9f7"/><path d="M256 424.5h5v30h-5zm30.5 0h30v30h-30zm0 0" fill="#3a4de3"/><path d="M378.031 270.95C348.141 304.7 304.511 326 256 326c-48.512 0-92.14-21.3-122.031-55.05 6.57-15.759 16.21-30.15 28.531-42.47 12.21-12.21 26.379-21.73 41.8-28.28-16.331-14.372-26.671-35.41-26.671-58.829C177.629 98.161 212.789 63 256 63c43.21 0 78.371 35.16 78.371 78.371 0 23.438-10.351 44.5-26.71 58.867 31.48 13.364 56.987 38.633 70.37 70.711zm0 0" fill="#6d76e7"/><path d="M378.031 270.95C348.141 304.7 304.511 326 256 326V63c43.21 0 78.371 35.16 78.371 78.371 0 23.438-10.351 44.5-26.71 58.867 31.48 13.364 56.987 38.633 70.37 70.711zm0 0" fill="#3a4de3"/></svg>