<svg xmlns="http://www.w3.org/2000/svg" width="512" height="512"><path d="M508.386 97.003a206.784 206.784 0 0 1-59.458 16.308c21.386-12.806 37.756-33.12 45.515-57.25-20.06 11.86-42.203 20.471-65.797 25.14-18.894-20.156-45.769-32.709-75.575-32.709-57.187 0-103.554 46.367-103.554 103.521 0 8.107.915 16.024 2.682 23.594-86.048-4.322-162.348-45.547-213.415-108.191-8.926 15.267-14.005 33.056-14.005 52.045 0 35.927 18.295 67.626 46.053 86.173a103.564 103.564 0 0 1-46.904-12.996v1.293c0 50.152 35.706 92.008 83.051 101.536a104.942 104.942 0 0 1-27.284 3.627 99.396 99.396 0 0 1-19.494-1.924c13.185 41.162 51.415 71.096 96.709 71.916-35.422 27.758-80.086 44.254-128.598 44.254-8.359 0-16.592-.504-24.697-1.419 45.831 29.429 100.241 46.589 158.72 46.589 190.484 0 294.605-157.776 294.605-294.605l-.348-13.406c20.346-14.51 37.946-32.741 51.794-53.496z"/></svg>